<svg version="1.1" id="Layer_1" xmlns="http://www.w3.org/2000/svg" xmlns:xlink="http://www.w3.org/1999/xlink" x="0px" y="0px"
	 width="100%" viewBox="0 0 224 224" enable-background="new 0 0 224 224" xml:space="preserve">
<path fill="#000000" opacity="1.000000" stroke="none" 
	d="
M16.468658,225.000000 
	C21.615780,216.637009 25.844971,207.849945 23.977800,197.240952 
	C22.044029,191.609909 12.000595,193.021271 11.981417,184.766068 
	C13.849704,183.999451 13.848834,185.893829 15.516418,185.889374 
	C18.247084,178.742828 19.681238,171.007004 21.685604,163.216507 
	C25.402319,163.547440 29.513052,167.150574 32.758560,162.427139 
	C32.513283,161.889603 32.456791,161.505997 32.234802,161.321167 
	C30.709394,160.051208 27.148422,161.282135 27.369556,158.156509 
	C27.570997,155.309265 27.563879,151.922791 30.596401,150.151642 
	C34.141670,148.081039 37.283924,145.105835 41.671143,144.785751 
	C44.959023,144.545898 46.911293,142.384796 48.973946,140.153717 
	C52.583019,136.249939 56.201405,132.427277 58.696835,127.623062 
	C62.666744,119.980179 60.109451,112.876022 57.712345,105.495682 
	C53.881550,93.701210 60.042366,83.630226 72.121330,79.869621 
	C79.193352,77.667862 85.954781,74.354919 92.650444,71.276009 
	C106.774117,64.781471 120.070869,67.023773 133.414017,72.711372 
	C139.066666,75.120865 145.355194,75.622375 150.669693,79.047523 
	C157.130386,83.211372 161.174911,88.652679 161.088699,96.576866 
	C161.022675,102.643509 162.005280,107.796089 167.802948,111.612823 
	C172.426117,114.656364 173.286240,120.967667 174.200806,125.713867 
	C175.945374,134.767670 181.379074,139.507141 188.714890,143.269730 
	C190.693573,144.284637 192.231857,145.694717 193.459045,147.562775 
	C196.807556,152.659882 196.301254,154.058578 190.387817,155.588028 
	C189.462143,159.507065 189.462143,159.507065 184.967590,161.562134 
	C181.379700,160.640884 180.951828,156.018341 176.338669,154.516022 
	C181.375320,161.475876 175.153183,161.398560 171.697998,163.205261 
	C173.449326,164.707245 175.340347,164.011749 176.080521,163.356537 
	C179.271957,160.531418 181.636780,162.383850 184.382004,164.042526 
	C186.958420,165.599213 187.002502,167.315460 185.320709,169.324371 
	C181.164734,174.288712 181.424088,181.816467 175.563705,185.876282 
	C174.669861,186.495499 174.634811,188.666534 174.585999,190.132584 
	C174.459061,193.944046 175.990387,198.274994 170.937485,200.298477 
	C172.353745,207.001968 166.638870,208.529587 163.020828,211.932266 
	C159.255020,215.473892 161.039169,220.252686 162.816498,224.767395 
	C114.312439,225.000000 65.624878,225.000000 16.468658,225.000000 
M111.012680,161.519806 
	C119.814812,158.255066 121.070969,156.507812 120.926254,147.260010 
	C120.895393,145.287979 120.319931,143.326370 120.264816,141.352432 
	C120.091217,135.135345 114.927483,133.335220 110.697014,132.331635 
	C106.019600,131.222046 101.460793,135.096069 98.607887,138.036285 
	C92.894409,143.924652 94.698853,151.242889 98.822777,157.611450 
	C101.421936,161.625320 105.202049,163.896881 111.012680,161.519806 
M73.622330,91.558571 
	C73.987633,87.963165 80.843201,90.901161 79.812332,85.458000 
	C76.567421,85.265091 73.695816,85.729897 70.976021,87.030678 
	C64.780281,89.993858 61.599209,97.064812 64.397263,102.755447 
	C65.822716,105.654518 68.115173,108.233757 70.404327,110.578117 
	C74.393814,114.663857 76.176270,123.057701 73.552345,128.393036 
	C77.459747,128.117416 81.465889,131.561798 84.849571,127.082184 
	C82.121216,120.955948 77.968376,115.763336 73.647301,110.851624 
	C69.673752,106.334946 70.324745,101.115219 69.866081,95.990746 
	C69.676971,93.877861 71.318657,92.785843 73.622330,91.558571 
M148.200455,89.262688 
	C145.732971,85.916290 141.488861,86.878654 138.312164,85.215973 
	C137.259155,84.664825 136.268433,85.391563 136.069473,86.487267 
	C135.859070,87.646118 136.887466,88.673416 137.784378,88.440834 
	C143.234192,87.027603 145.025558,91.882004 147.512253,93.632248 
	C150.841690,103.901390 146.169144,109.602020 137.938004,113.444901 
	C139.039261,115.005913 140.230667,116.759392 142.225540,114.825195 
	C144.828201,112.301712 147.412338,109.691795 149.580826,106.801262 
	C154.775604,99.876778 154.474319,96.087868 148.200455,89.262688 
M46.748245,152.643463 
	C47.970451,152.128113 49.835247,152.968262 50.409496,150.994476 
	C43.797638,145.824524 38.561344,148.509293 34.622746,159.518997 
	C37.849766,159.733932 38.882271,164.216568 42.992661,163.627060 
	C42.608593,160.623764 38.877224,161.645096 38.472679,158.495239 
	C40.058720,155.806259 42.197601,153.253540 46.748245,152.643463 
M109.769760,95.159515 
	C109.520737,93.833130 110.247162,91.881981 107.918251,91.829590 
	C106.965408,91.808144 105.517998,92.269447 105.662933,93.328453 
	C106.370987,98.501823 104.322601,103.961235 107.126633,109.991180 
	C111.476631,105.264091 109.427704,100.396477 109.769760,95.159515 
M105.335800,72.678192 
	C104.391167,73.650398 102.464455,73.908524 103.009529,76.236038 
	C104.677032,77.172737 106.507095,78.200745 108.764374,79.468735 
	C108.804718,77.091026 113.225380,76.962906 110.980309,73.795204 
	C109.751724,72.061737 108.352676,70.107292 105.335800,72.678192 
M82.116821,99.536064 
	C82.764648,101.890015 82.842476,104.652344 86.301468,105.498009 
	C87.087730,100.589226 78.971329,96.126846 86.084953,91.530174 
	C83.618607,88.717453 82.251129,89.383644 80.990097,92.665154 
	C80.053970,95.101173 81.686798,96.759125 82.116821,99.536064 
M106.578568,84.624809 
	C105.761345,83.127350 104.944130,81.629890 104.053589,79.998062 
	C100.617310,82.393044 101.112442,85.344200 101.422142,88.498146 
	C103.374237,88.146751 104.975891,87.927994 106.542671,87.560539 
	C109.060738,86.969994 106.796112,85.971939 106.578568,84.624809 
M163.522400,203.912704 
	C164.689987,202.362167 165.273666,200.748840 163.811142,199.073593 
	C163.234512,198.413086 162.233475,198.091599 161.629486,198.693085 
	C159.529282,200.784470 159.339417,203.403976 159.736908,206.250275 
	C161.576187,206.610809 162.220093,205.345673 163.522400,203.912704 
M38.235332,204.349518 
	C40.229923,202.623230 40.531315,200.591400 38.469955,198.940552 
	C37.239853,197.955444 35.897209,199.028854 35.318905,200.363983 
	C34.335526,202.634293 34.781254,204.278656 38.235332,204.349518 
M137.698776,123.779449 
	C137.421387,123.092140 137.719040,121.922371 136.606613,121.913078 
	C135.660507,121.905182 135.286591,122.802551 135.248779,123.658768 
	C135.050537,128.148300 139.007217,127.400734 141.452164,129.137878 
	C141.685608,125.955025 138.368301,126.348137 137.698776,123.779449 
M101.977013,202.003632 
	C101.787201,199.833130 100.705528,199.145035 98.344658,200.082703 
	C98.692940,201.508102 97.313751,203.426346 99.504715,204.259186 
	C100.549629,204.656372 102.362480,204.788864 101.977013,202.003632 
M144.924408,199.923187 
	C143.467987,199.025757 142.094864,198.461716 142.023438,201.037903 
	C141.944977,203.867981 143.313904,204.715637 145.938660,203.811615 
	C145.670807,202.598801 145.427887,201.498901 144.924408,199.923187 
M135.625748,94.531685 
	C134.674591,93.003616 135.326324,90.637405 133.110992,89.425308 
	C131.651840,91.728981 133.220596,93.502213 133.656113,95.262260 
	C133.933548,96.383484 135.052002,96.622589 135.625748,94.531685 
M123.001717,121.885521 
	C119.979706,120.825836 121.249001,123.442276 121.472137,124.085213 
	C122.284691,126.426460 123.933693,126.052673 126.563042,124.759399 
	C125.158577,123.707291 124.246361,123.023933 123.001717,121.885521 
M94.798714,121.758347 
	C90.674164,120.479439 92.531586,124.123558 90.918854,125.588432 
	C94.019135,125.717880 95.499611,125.017334 94.798714,121.758347 
z"/>
<path fill="#FFFFFF" opacity="1.000000" stroke="none" 
	d="
M1.000000,208.470459 
	C2.437716,212.067825 2.429311,216.363541 2.812862,220.574814 
	C2.997916,222.606628 3.393701,224.064774 5.739392,224.825378 
	C4.367512,225.000000 2.735024,225.000000 1.000000,225.000000 
	C1.000000,219.647247 1.000000,214.294083 1.000000,208.470459 
z"/>
<path fill="#FFFFFF" opacity="1.000000" stroke="none" 
	d="
M99.330002,150.322968 
	C99.267166,148.525406 97.422539,146.490509 100.239182,145.701752 
	C101.110161,145.457840 101.955345,146.146866 101.844292,147.045364 
	C101.658058,148.552109 103.004662,151.292999 99.330002,150.322968 
z"/>
</svg>